<?xml version="1.0" encoding="utf-8"?>
<!-- Generator: Adobe Illustrator 19.0.0, SVG Export Plug-In . SVG Version: 6.00 Build 0)  -->
<svg version="1.1" id="Layer_1" xmlns="http://www.w3.org/2000/svg" xmlns:xlink="http://www.w3.org/1999/xlink" x="0px" y="0px"
	 viewBox="12 -12 64 64" style="enable-background:new 12 -12 64 64;" xml:space="preserve">
<style type="text/css">
	.st0{fill:#2fbccd;}
</style>
<g>
	<g>
		<path class="st0" d="M68,52H20c-0.6,0-1-0.4-1-1V4c0-0.6,0.4-1,1-1h14v-14c0-0.6,0.4-1,1-1h33c0.6,0,1,0.4,1,1v62
			C69,51.6,68.6,52,68,52z M21,50h46v-60H36V4c0,0.6-0.4,1-1,1H21V50z"/>
	</g>
	<g>
		<path class="st0" d="M20,5c-0.3,0-0.5-0.1-0.7-0.3c-0.4-0.4-0.4-1,0-1.4l15-15c0.4-0.4,1-0.4,1.4,0s0.4,1,0,1.4l-15,15
			C20.5,4.9,20.3,5,20,5z"/>
	</g>
	<g>
		<rect x="27" y="9" class="st0" width="36" height="2"/>
	</g>
	<g>
		<rect x="27" y="15" class="st0" width="36" height="2"/>
	</g>
	<g>
		<rect x="27" y="21" class="st0" width="15" height="2"/>
	</g>
</g>
<g>
	<g>
		<path class="st0" d="M52.5,46C46.2,46,41,40.8,41,34.5c0-3.1,1.2-6,3.4-8.1c2.2-2.2,5.1-3.4,8.1-3.4c0,0,0,0,0,0
			C58.8,23,64,28.2,64,34.5S58.8,46,52.5,46z M52.5,25c-2.5,0-4.9,1-6.7,2.8C44,29.6,43,32,43,34.5c0,5.2,4.3,9.5,9.5,9.5
			s9.5-4.3,9.5-9.5S57.7,25,52.5,25C52.5,25,52.5,25,52.5,25z"/>
	</g>
	<g>
		<path class="st0" d="M51,39c-0.3,0-0.5-0.1-0.7-0.3l-3-3c-0.4-0.4-0.4-1,0-1.4s1-0.4,1.4,0l2.3,2.3l5.3-5.3c0.4-0.4,1-0.4,1.4,0
			s0.4,1,0,1.4l-6,6C51.5,38.9,51.3,39,51,39z"/>
	</g>
</g>
</svg>
