<?xml version="1.0" encoding="utf-8"?>
<!-- Generator: Adobe Illustrator 19.0.0, SVG Export Plug-In . SVG Version: 6.00 Build 0)  -->
<svg version="1.1" id="Layer_1" xmlns="http://www.w3.org/2000/svg" xmlns:xlink="http://www.w3.org/1999/xlink" x="0px" y="0px"
	 viewBox="12 -12 64 64" style="enable-background:new 12 -12 64 64;" xml:space="preserve">
<style type="text/css">
	.st0{fill:#2fbccd;}
</style>
<g>
	<path class="st0" d="M75,40H45c-0.6,0-1-0.4-1-1V10c0-0.6,0.4-1,1-1h8V1c0-0.6,0.4-1,1-1h21c0.6,0,1,0.4,1,1v38
		C76,39.6,75.6,40,75,40z M46,38h28V2H55v8c0,0.6-0.4,1-1,1h-8V38z"/>
</g>
<g>
	<path class="st0" d="M45,11c-0.3,0-0.5-0.1-0.7-0.3c-0.4-0.4-0.4-1,0-1.4l9-9c0.4-0.4,1-0.4,1.4,0s0.4,1,0,1.4l-9,9
		C45.5,10.9,45.3,11,45,11z"/>
</g>
<g>
	<path class="st0" d="M16.5,24.5c-2.5,0-4.5-2-4.5-4.5s2-4.5,4.5-4.5s4.5,2,4.5,4.5S19,24.5,16.5,24.5z M16.5,17.5
		c-1.4,0-2.5,1.1-2.5,2.5c0,1.4,1.1,2.5,2.5,2.5S19,21.4,19,20C19,18.6,17.9,17.5,16.5,17.5z"/>
</g>
<g>
	<path class="st0" d="M20,21c-0.6,0-1-0.4-1-1s0.4-1,1-1l25,0c0.6,0,1,0.4,1,1s-0.4,1-1,1L20,21z"/>
</g>
<g>
	<g>
		<path class="st0" d="M16.5,11C14,11,12,9,12,6.5S14,2,16.5,2S21,4,21,6.5S19,11,16.5,11z M16.5,4C15.1,4,14,5.1,14,6.5
			S15.1,9,16.5,9S19,7.9,19,6.5S17.9,4,16.5,4z"/>
	</g>
	<g>
		<path class="st0" d="M19.9,5l-1.4-1.4l15.3-15.3c0.2-0.2,0.4-0.3,0.7-0.3H45v2H34.9L19.9,5z"/>
	</g>
	<g>
		<rect x="48" y="-12" class="st0" width="3" height="2"/>
	</g>
	<g>
		<rect x="54" y="-12" class="st0" width="3" height="2"/>
	</g>
	<g>
		<rect x="60" y="-12" class="st0" width="3" height="2"/>
	</g>
	<g>
		<rect x="66" y="-12" class="st0" width="3" height="2"/>
	</g>
</g>
<g>
	<g>
		<path class="st0" d="M16.5,38C14,38,12,36,12,33.5s2-4.5,4.5-4.5s4.5,2,4.5,4.5S19,38,16.5,38z M16.5,31c-1.4,0-2.5,1.1-2.5,2.5
			s1.1,2.5,2.5,2.5s2.5-1.1,2.5-2.5S17.9,31,16.5,31z"/>
	</g>
	<g>
		<path class="st0" d="M45,52H34.5c-0.3,0-0.5-0.1-0.7-0.3L18.5,36.4l1.4-1.4l15,15H45V52z"/>
	</g>
	<g>
		<rect x="48" y="50" class="st0" width="3" height="2"/>
	</g>
	<g>
		<rect x="54" y="50" class="st0" width="3" height="2"/>
	</g>
	<g>
		<rect x="60" y="50" class="st0" width="3" height="2"/>
	</g>
	<g>
		<rect x="66" y="50" class="st0" width="3" height="2"/>
	</g>
</g>
</svg>
