<?xml version="1.0" encoding="utf-8"?>
<!-- Generator: Adobe Illustrator 19.0.0, SVG Export Plug-In . SVG Version: 6.00 Build 0)  -->
<svg version="1.1" id="Layer_1" xmlns="http://www.w3.org/2000/svg" xmlns:xlink="http://www.w3.org/1999/xlink" x="0px" y="0px"
	 viewBox="12 -12 64 64" style="enable-background:new 12 -12 64 64;" xml:space="preserve">
<style type="text/css">
	.st0{fill:#2fbccd;}
</style>
<g>
	<g>
		<path class="st0" d="M65,38c-0.6,0-1-0.4-1-1V6.4L51.5-6H33.7c-0.6,0-1-0.4-1-1s0.4-1,1-1h18.3c0.3,0,0.5,0.1,0.7,0.3l13.1,13
			C65.9,5.5,66,5.7,66,6v31C66,37.6,65.6,38,65,38z"/>
	</g>
	<g>
		<path class="st0" d="M65,7H51.9c-0.6,0-1-0.4-1-1V-7c0-0.6,0.4-1,1-1s1,0.4,1,1V5H65c0.6,0,1,0.4,1,1S65.6,7,65,7z"/>
	</g>
	<g>
		<path class="st0" d="M68.5,52h-49c-0.6,0-1-0.4-1-1v-62c0-0.6,0.4-1,1-1h13c0.4,0,0.8,0.3,1,0.7L47.3,36h21.3c0.6,0,1,0.4,1,1v14
			C69.5,51.6,69.1,52,68.5,52z M20.5,50h47V38h-21c-0.4,0-0.8-0.3-1-0.7L31.8-10H20.5V50z"/>
	</g>
	<g>
		<path class="st0" d="M26.5,44c0.6,0,1,0.4,1,1c0,0.6-0.4,1-1,1c-0.5,0-1-0.4-1-1C25.5,44.4,26,44,26.5,44z"/>
	</g>
	<g>
		<circle class="st0" cx="32.5" cy="45" r="1"/>
	</g>
	<g>
		<path class="st0" d="M38.5,44c0.6,0,1,0.4,1,1c0,0.6-0.4,1-1,1c-0.5,0-1-0.4-1-1C37.5,44.4,38,44,38.5,44z"/>
	</g>
	<g>
		<line class="st0" x1="39.5" y1="13" x2="52.5" y2="13"/>
		<path class="st0" d="M52.5,14h-13c-0.6,0-1-0.4-1-1s0.4-1,1-1h13c0.6,0,1,0.4,1,1S53.1,14,52.5,14z"/>
	</g>
	<g>
		<line class="st0" x1="41.3" y1="19" x2="52.5" y2="19"/>
		<path class="st0" d="M52.5,20H41.3c-0.6,0-1-0.4-1-1s0.4-1,1-1h11.3c0.6,0,1,0.4,1,1S53.1,20,52.5,20z"/>
	</g>
	<g>
		<line class="st0" x1="43" y1="25" x2="52.5" y2="25"/>
		<path class="st0" d="M52.5,26H43c-0.6,0-1-0.4-1-1s0.4-1,1-1h9.5c0.6,0,1,0.4,1,1S53.1,26,52.5,26z"/>
	</g>
	<g>
		<line class="st0" x1="44.8" y1="31" x2="52.9" y2="31"/>
		<path class="st0" d="M52.9,32h-8.1c-0.6,0-1-0.4-1-1s0.4-1,1-1h8.1c0.6,0,1,0.4,1,1S53.4,32,52.9,32z"/>
	</g>
</g>
</svg>
