<?xml version="1.0" encoding="utf-8"?>
<!-- Generator: Adobe Illustrator 19.0.0, SVG Export Plug-In . SVG Version: 6.00 Build 0)  -->
<svg version="1.1" id="Layer_1" xmlns="http://www.w3.org/2000/svg" xmlns:xlink="http://www.w3.org/1999/xlink" x="0px" y="0px"
	 viewBox="12 -12 64 64" style="enable-background:new 12 -12 64 64;" xml:space="preserve">
<style type="text/css">
	.st0{fill:#2fbccd;}
</style>
<g>
	<polygon class="st0" points="76,53 12,53 12,-11 14,-11 14,51 76,51 	"/>
</g>
<g>
	<g>
		<rect x="18" y="44" class="st0" width="2" height="3"/>
	</g>
	<g>
		<rect x="18" y="38" class="st0" width="2" height="3"/>
	</g>
	<g>
		<rect x="24" y="44" class="st0" width="2" height="3"/>
	</g>
	<g>
		<rect x="24" y="38" class="st0" width="2" height="3"/>
	</g>
	<g>
		<rect x="24" y="32" class="st0" width="2" height="3"/>
	</g>
	<g>
		<rect x="24" y="26" class="st0" width="2" height="3"/>
	</g>
	<g>
		<rect x="24" y="20" class="st0" width="2" height="3"/>
	</g>
	<g>
		<rect x="24" y="14" class="st0" width="2" height="3"/>
	</g>
	<g>
		<rect x="24" y="8" class="st0" width="2" height="3"/>
	</g>
	<g>
		<rect x="30" y="44" class="st0" width="2" height="3"/>
	</g>
	<g>
		<rect x="30" y="38" class="st0" width="2" height="3"/>
	</g>
	<g>
		<rect x="30" y="32" class="st0" width="2" height="3"/>
	</g>
	<g>
		<rect x="30" y="26" class="st0" width="2" height="3"/>
	</g>
	<g>
		<rect x="30" y="20" class="st0" width="2" height="3"/>
	</g>
	<g>
		<rect x="36" y="44" class="st0" width="2" height="3"/>
	</g>
	<g>
		<rect x="36" y="38" class="st0" width="2" height="3"/>
	</g>
	<g>
		<rect x="36" y="32" class="st0" width="2" height="3"/>
	</g>
	<g>
		<rect x="42" y="44" class="st0" width="2" height="3"/>
	</g>
	<g>
		<rect x="42" y="38" class="st0" width="2" height="3"/>
	</g>
	<g>
		<rect x="42" y="32" class="st0" width="2" height="3"/>
	</g>
	<g>
		<rect x="42" y="26" class="st0" width="2" height="3"/>
	</g>
	<g>
		<rect x="42" y="20" class="st0" width="2" height="3"/>
	</g>
	<g>
		<rect x="42" y="14" class="st0" width="2" height="3"/>
	</g>
	<g>
		<rect x="42" y="8" class="st0" width="2" height="3"/>
	</g>
	<g>
		<rect x="48" y="44" class="st0" width="2" height="3"/>
	</g>
	<g>
		<rect x="48" y="38" class="st0" width="2" height="3"/>
	</g>
	<g>
		<rect x="48" y="32" class="st0" width="2" height="3"/>
	</g>
	<g>
		<rect x="48" y="26" class="st0" width="2" height="3"/>
	</g>
	<g>
		<rect x="48" y="20" class="st0" width="2" height="3"/>
	</g>
	<g>
		<rect x="48" y="14" class="st0" width="2" height="3"/>
	</g>
	<g>
		<rect x="54" y="44" class="st0" width="2" height="3"/>
	</g>
	<g>
		<rect x="54" y="38" class="st0" width="2" height="3"/>
	</g>
	<g>
		<rect x="54" y="32" class="st0" width="2" height="3"/>
	</g>
	<g>
		<rect x="54" y="26" class="st0" width="2" height="3"/>
	</g>
	<g>
		<rect x="60" y="44" class="st0" width="2" height="3"/>
	</g>
	<g>
		<rect x="60" y="38" class="st0" width="2" height="3"/>
	</g>
	<g>
		<rect x="66" y="44" class="st0" width="2" height="3"/>
	</g>
	<g>
		<rect x="66" y="38" class="st0" width="2" height="3"/>
	</g>
	<g>
		<rect x="66" y="32" class="st0" width="2" height="3"/>
	</g>
	<g>
		<rect x="66" y="26" class="st0" width="2" height="3"/>
	</g>
	<g>
		<rect x="66" y="20" class="st0" width="2" height="3"/>
	</g>
	<g>
		<rect x="66" y="14" class="st0" width="2" height="3"/>
	</g>
	<g>
		<rect x="66" y="8" class="st0" width="2" height="3"/>
	</g>
	<g>
		<rect x="66" y="2" class="st0" width="2" height="3"/>
	</g>
	<g>
		<rect x="66" y="-4" class="st0" width="2" height="3"/>
	</g>
	<g>
		<rect x="72" y="44" class="st0" width="2" height="3"/>
	</g>
	<g>
		<rect x="72" y="38" class="st0" width="2" height="3"/>
	</g>
	<g>
		<rect x="72" y="32" class="st0" width="2" height="3"/>
	</g>
	<g>
		<rect x="72" y="26" class="st0" width="2" height="3"/>
	</g>
	<g>
		<rect x="72" y="20" class="st0" width="2" height="3"/>
	</g>
	<g>
		<rect x="72" y="14" class="st0" width="2" height="3"/>
	</g>
</g>
</svg>
